<?xml version="1.0" ?><svg id="Layer_2" style="enable-background:new 0 0 32 32;" version="1.1" viewBox="0 0 32 32" xml:space="preserve" xmlns="http://www.w3.org/2000/svg" xmlns:xlink="http://www.w3.org/1999/xlink"><g><path d="M29.5625,14.0625h-1.88788c-0.82458-4.97992-4.7572-8.91254-9.73712-9.73712V2.4375C17.9375,1.36938,17.06854,0.5,16,0.5   s-1.9375,0.86938-1.9375,1.9375v1.88788c-4.97992,0.82458-8.91254,4.7572-9.73712,9.73712H2.4375   C1.36896,14.0625,0.5,14.93188,0.5,16c0,1.06805,0.86896,1.9375,1.9375,1.9375h1.88788   c0.82458,4.97992,4.7572,8.91248,9.73712,9.73712v1.88788c0,1.06805,0.86896,1.9375,1.9375,1.9375s1.9375-0.86945,1.9375-1.9375   v-1.88788c4.97992-0.82465,8.91254-4.7572,9.73712-9.73712h1.88788c1.06854,0,1.9375-0.86945,1.9375-1.9375   C31.5,14.93188,30.63104,14.0625,29.5625,14.0625z M22.25714,17.9375h1.46722c-0.71301,2.83948-2.94757,5.07379-5.78687,5.78674   v-1.4671c0-1.06812-0.86896-1.9375-1.9375-1.9375s-1.9375,0.86938-1.9375,1.9375v1.4671   c-2.83929-0.71295-5.07385-2.94727-5.78687-5.78674h1.46722c1.06854,0,1.9375-0.86945,1.9375-1.9375   c0-1.06812-0.86896-1.9375-1.9375-1.9375H8.27563c0.71301-2.83954,2.94757-5.07385,5.78687-5.7868v1.46716   c0,1.06805,0.86896,1.9375,1.9375,1.9375s1.9375-0.86945,1.9375-1.9375V8.2757c2.83929,0.71295,5.07385,2.94727,5.78687,5.7868   h-1.46722c-1.06854,0-1.9375,0.86938-1.9375,1.9375C20.31964,17.06805,21.1886,17.9375,22.25714,17.9375z"/></g></svg>